<svg id="visual" viewBox="0 0 900 600" width="900" height="600" xmlns="http://www.w3.org/2000/svg" xmlns:xlink="http://www.w3.org/1999/xlink" version="1.1"><rect x="0" y="0" width="900" height="600" fill="#001220"></rect><defs><linearGradient id="grad1_0" x1="33.3%" y1="0%" x2="100%" y2="100%"><stop offset="20%" stop-color="#001220" stop-opacity="1"></stop><stop offset="80%" stop-color="#001220" stop-opacity="1"></stop></linearGradient></defs><defs><linearGradient id="grad2_0" x1="0%" y1="0%" x2="66.7%" y2="100%"><stop offset="20%" stop-color="#001220" stop-opacity="1"></stop><stop offset="80%" stop-color="#001220" stop-opacity="1"></stop></linearGradient></defs><g transform="translate(900, 0)"><path d="M0 189.3C-22.7 176.1 -45.3 162.9 -61.6 148.7C-77.9 134.6 -87.8 119.4 -108.2 108.2C-128.6 97 -159.6 89.8 -174.9 72.4C-190.2 55.1 -189.7 27.5 -189.3 0L0 0Z" fill="#FBAE3C"></path></g><g transform="translate(0, 600)"><path d="M0 -189.3C19.9 -174.2 39.7 -159 62.8 -151.5C85.8 -144 112.1 -144.1 132.2 -132.2C152.4 -120.3 166.4 -96.5 174.9 -72.4C183.4 -48.4 186.3 -24.2 189.3 0L0 0Z" fill="#FBAE3C"></path></g></svg>