<svg id="visual" viewBox="0 0 900 600" width="900" height="600" xmlns="http://www.w3.org/2000/svg" xmlns:xlink="http://www.w3.org/1999/xlink" version="1.1"><rect x="0" y="0" width="900" height="600" fill="#121212"></rect><defs><linearGradient id="grad1_0" x1="33.3%" y1="100%" x2="100%" y2="0%"><stop offset="20%" stop-color="#121212" stop-opacity="1"></stop><stop offset="80%" stop-color="#121212" stop-opacity="1"></stop></linearGradient></defs><defs><linearGradient id="grad2_0" x1="0%" y1="100%" x2="66.7%" y2="0%"><stop offset="20%" stop-color="#121212" stop-opacity="1"></stop><stop offset="80%" stop-color="#121212" stop-opacity="1"></stop></linearGradient></defs><g transform="translate(900, 600)"><path d="M-189.3 0C-176.1 -22.7 -162.9 -45.3 -148.7 -61.6C-134.6 -77.9 -119.4 -87.8 -108.2 -108.2C-97 -128.6 -89.8 -159.6 -72.4 -174.9C-55.1 -190.2 -27.5 -189.7 0 -189.3L0 0Z" fill="#FBAE3C"></path></g><g transform="translate(0, 0)"><path d="M189.3 0C174.2 19.9 159 39.7 151.5 62.8C144 85.8 144.1 112.1 132.2 132.2C120.3 152.4 96.5 166.4 72.4 174.9C48.4 183.4 24.2 186.3 0 189.3L0 0Z" fill="#FBAE3C"></path></g></svg>