<svg id="visual" viewBox="0 0 960 540" width="960" height="540" xmlns="http://www.w3.org/2000/svg" xmlns:xlink="http://www.w3.org/1999/xlink" version="1.1"><path d="M0 383L22.8 385.8C45.7 388.7 91.3 394.3 137 399C182.7 403.7 228.3 407.3 274 402.5C319.7 397.7 365.3 384.3 411.2 382C457 379.7 503 388.3 548.8 396.2C594.7 404 640.3 411 686 408C731.7 405 777.3 392 823 384.3C868.7 376.7 914.3 374.3 937.2 373.2L960 372L960 541L937.2 541C914.3 541 868.7 541 823 541C777.3 541 731.7 541 686 541C640.3 541 594.7 541 548.8 541C503 541 457 541 411.2 541C365.3 541 319.7 541 274 541C228.3 541 182.7 541 137 541C91.3 541 45.7 541 22.8 541L0 541Z" fill="#ffd56b"></path><path d="M0 400L22.8 403.3C45.7 406.7 91.3 413.3 137 421.8C182.7 430.3 228.3 440.7 274 439.5C319.7 438.3 365.3 425.7 411.2 419.2C457 412.7 503 412.3 548.8 419.3C594.7 426.3 640.3 440.7 686 446.2C731.7 451.7 777.3 448.3 823 442.7C868.7 437 914.3 429 937.2 425L960 421L960 541L937.2 541C914.3 541 868.7 541 823 541C777.3 541 731.7 541 686 541C640.3 541 594.7 541 548.8 541C503 541 457 541 411.2 541C365.3 541 319.7 541 274 541C228.3 541 182.7 541 137 541C91.3 541 45.7 541 22.8 541L0 541Z" fill="#ddb14a"></path><path d="M0 446L22.8 450.5C45.7 455 91.3 464 137 467.8C182.7 471.7 228.3 470.3 274 465.8C319.7 461.3 365.3 453.7 411.2 452.8C457 452 503 458 548.8 458.8C594.7 459.7 640.3 455.3 686 450.8C731.7 446.3 777.3 441.7 823 447.5C868.7 453.3 914.3 469.7 937.2 477.8L960 486L960 541L937.2 541C914.3 541 868.7 541 823 541C777.3 541 731.7 541 686 541C640.3 541 594.7 541 548.8 541C503 541 457 541 411.2 541C365.3 541 319.7 541 274 541C228.3 541 182.7 541 137 541C91.3 541 45.7 541 22.8 541L0 541Z" fill="#bb8f2a"></path><path d="M0 476L22.8 479.7C45.7 483.3 91.3 490.7 137 496.3C182.7 502 228.3 506 274 507C319.7 508 365.3 506 411.2 500.5C457 495 503 486 548.8 484.8C594.7 483.7 640.3 490.3 686 495.7C731.7 501 777.3 505 823 504.2C868.7 503.3 914.3 497.7 937.2 494.8L960 492L960 541L937.2 541C914.3 541 868.7 541 823 541C777.3 541 731.7 541 686 541C640.3 541 594.7 541 548.8 541C503 541 457 541 411.2 541C365.3 541 319.7 541 274 541C228.3 541 182.7 541 137 541C91.3 541 45.7 541 22.8 541L0 541Z" fill="#996e00"></path></svg>